Coordinates
version=1
nRows=43
nColumns=12
inDegrees=yes

Units are S.I. units (second, meters, Newtons, ...)
Angles are in degrees

endheader
time	SC_y	SC_z	SC_x	AC_y	AC_z	AC_x	GH_y	GH_z	GH_yy	EL_x	PS_y
       0.0              -18.94          12.68          62.96          45.77         -15.99         -17.09         -42.01          76.69          24.96          69.51          5.307
    0.0134              -18.94          12.68          62.96          45.77         -15.99         -17.09         -42.03          76.68          24.95          69.51          5.311
   0.02681              -18.94          12.68          62.95          45.77         -15.99         -17.09         -42.05          76.66          24.95          69.51          5.316
   0.04021              -18.94          12.68          62.95          45.76         -15.99         -17.09         -42.07          76.64          24.94          69.51          5.321
   0.05362              -18.94          12.68          62.94          45.76         -15.98         -17.09         -42.09          76.63          24.93          69.51          5.327
   0.06702              -18.94          12.69          62.94          45.76         -15.98         -17.08         -42.11          76.61          24.93          69.51          5.332
   0.08042              -18.94          12.69          62.93          45.76         -15.98         -17.08         -42.13          76.59          24.92          69.51          5.338
   0.09383              -18.94          12.69          62.93          45.76         -15.98         -17.08         -42.16          76.57          24.91          69.51          5.345
    0.1072              -18.94           12.7          62.92          45.75         -15.97         -17.08         -42.19          76.55          24.91          69.51          5.352
    0.1206              -18.94           12.7          62.91          45.75         -15.97         -17.08         -42.22          76.53           24.9          69.51           5.36
     0.134              -18.94          12.71          62.91          45.75         -15.97         -17.07         -42.25           76.5          24.89          69.51          5.368
    0.1474              -18.94          12.71           62.9          45.75         -15.97         -17.07         -42.28          76.47          24.88          69.52          5.376
    0.1608              -18.94          12.71          62.89          45.74         -15.96         -17.07         -42.32          76.44          24.87          69.52          5.386
    0.1743              -18.94          12.72          62.88          45.74         -15.96         -17.07         -42.36          76.41          24.86          69.52          5.396
    0.1877              -18.93          12.72          62.87          45.74         -15.96         -17.06          -42.4          76.38          24.85          69.52          5.407
    0.2011              -18.93          12.73          62.86          45.73         -15.95         -17.06         -42.44          76.34          24.83          69.52          5.419
    0.2145              -18.93          12.74          62.85          45.73         -15.95         -17.05         -42.49           76.3          24.82          69.52          5.432
    0.2279              -18.93          12.74          62.83          45.72         -15.94         -17.05         -42.55          76.26           24.8          69.52          5.446
    0.2413              -18.93          12.75          62.82          45.72         -15.94         -17.05         -42.61          76.21          24.79          69.52          5.461
    0.2547              -18.93          12.76           62.8          45.71         -15.93         -17.04         -42.67          76.16          24.77          69.52          5.478
    0.2681              -18.93          12.77          62.78           45.7         -15.92         -17.03         -42.74           76.1          24.75          69.53          5.496
    0.2815              -18.93          12.78          62.76           45.7         -15.92         -17.03         -42.82          76.03          24.73          69.53          5.517
    0.2949              -18.92          12.79          62.74          45.69         -15.91         -17.02         -42.91          75.96           24.7          69.53          5.539
    0.3083              -18.92           12.8          62.72          45.68          -15.9         -17.01         -43.01          75.89          24.67          69.53          5.564
    0.3217              -18.92          12.82          62.69          45.67         -15.89          -17.0         -43.11           75.8          24.64          69.54          5.592
    0.3351              -18.92          12.83          62.66          45.66         -15.88          -17.0         -43.23           75.7          24.61          69.54          5.623
    0.3485              -18.92          12.85          62.63          45.65         -15.87         -16.98         -43.37          75.59          24.57          69.54          5.657
    0.3619              -18.91          12.87          62.59          45.64         -15.86         -16.97         -43.52          75.47          24.53          69.54          5.696
    0.3753              -18.91          12.89          62.55          45.62         -15.84         -16.96         -43.69          75.34          24.48          69.55           5.74
    0.3887              -18.91          12.91          62.51          45.61         -15.82         -16.94         -43.88          75.18          24.42          69.55           5.79
    0.4021               -18.9          12.94          62.45          45.59          -15.8         -16.93          -44.1           75.0          24.36          69.56          5.847
    0.4155               -18.9          12.97          62.39          45.56         -15.78         -16.91         -44.35           74.8          24.29          69.56          5.912
    0.4289              -18.89          13.01          62.32          45.54         -15.76         -16.88         -44.64          74.56          24.21          69.57          5.988
    0.4423              -18.89          13.05          62.24          45.51         -15.73         -16.86         -44.98          74.29          24.11          69.58          6.076
    0.4557              -18.88           13.1          62.14          45.47         -15.69         -16.82         -45.38          73.97           24.0          69.59          6.178
    0.4691              -18.87          13.16          62.02          45.43         -15.65         -16.79         -45.85          73.59          23.86           69.6          6.299
    0.4825              -18.86          13.23          61.89          45.38          -15.6         -16.74          -46.4          73.14           23.7          69.61          6.443
     0.496              -18.85          13.32          61.72          45.32         -15.54         -16.69         -47.07           72.6          23.52          69.63          6.615
    0.5094              -18.83          13.42          61.53          45.25         -15.47         -16.62         -47.87          71.95          23.29          69.65          6.824
    0.5228              -18.81          13.55          61.29          45.17         -15.38         -16.55         -48.86          71.15           23.0          69.67          7.078
    0.5362              -18.79           13.7          60.99          45.06         -15.27         -16.45         -50.07          70.17          22.66           69.7          7.393
    0.5496              -18.76          13.89          60.62          44.93         -15.14         -16.33         -51.58          68.95          22.23          69.74          7.785
     0.563              -18.73          14.14          60.15          44.76         -14.97         -16.18         -53.49           67.4          21.68          69.78          8.279
